<svg version="1.1" id="Layer_1" xmlns="http://www.w3.org/2000/svg" xmlns:xlink="http://www.w3.org/1999/xlink" x="0px" y="0px"
	 width="100%" viewBox="0 0 280 280" enable-background="new 0 0 280 280" xml:space="preserve">
<path fill="#FEFFFF" opacity="1.000000" stroke="none" 
	d="
M135.000000,281.000000 
	C90.000000,281.000000 45.500000,281.000000 1.000000,281.000000 
	C1.000000,187.666672 1.000000,94.333336 1.000000,1.000000 
	C94.333336,1.000000 187.666672,1.000000 281.000000,1.000000 
	C281.000000,94.333336 281.000000,187.666672 281.000000,281.000000 
	C232.500000,281.000000 184.000000,281.000000 135.000000,281.000000 
M222.424728,226.765884 
	C222.597900,226.464005 222.771088,226.162125 223.250275,225.327698 
	C224.091324,224.181412 224.932388,223.035126 226.410080,221.909134 
	C226.556488,221.256027 226.702881,220.602921 226.971130,219.262894 
	C227.136276,218.828766 227.301422,218.394623 227.749802,217.691101 
	C227.910034,217.469971 227.982239,217.223083 227.999939,216.452316 
	C227.999939,216.452316 228.148880,215.975815 228.631897,215.529114 
	C228.745163,214.666763 228.858429,213.804398 228.960602,212.472260 
	C228.960602,212.472260 229.101135,212.023849 229.745926,211.902481 
	C229.549423,210.272675 229.352921,208.642883 229.025574,206.225052 
	C228.994186,205.161484 228.962784,204.097931 229.524658,202.514923 
	C229.677078,199.967819 231.970367,196.608566 226.896545,195.610367 
	C226.896545,195.610367 226.895111,195.204742 226.951736,194.539978 
	C226.592606,194.039551 226.233475,193.539124 225.488083,192.998856 
	C225.488083,192.998856 225.102951,192.949295 225.104416,192.301117 
	C225.051071,191.872650 224.997711,191.444183 225.474869,190.614838 
	C224.718338,189.729721 223.961807,188.844604 222.977386,187.594803 
	C222.977386,187.594803 222.927643,187.167648 222.837143,186.656693 
	C222.586380,186.430939 222.335602,186.205170 222.011749,185.975082 
	C222.011749,185.975082 222.042908,185.908813 222.038010,185.219009 
	C221.329742,184.160065 220.621475,183.101105 219.999222,182.006241 
	C219.999222,182.006241 219.934204,182.073257 219.989243,181.363297 
	C219.356354,180.560715 218.723480,179.758148 218.001694,178.975220 
	C218.001694,178.975220 218.042313,178.893738 217.917908,178.533020 
	C217.794296,178.299957 217.612747,178.128098 217.086105,177.561493 
	C217.050186,177.385513 217.014267,177.209518 217.011719,176.228271 
	C215.966156,170.006302 212.292892,165.299255 208.052490,160.135590 
	C206.750854,158.414154 205.449219,156.692719 203.923615,154.646851 
	C203.923615,154.646851 203.855972,154.258469 203.956482,153.445709 
	C201.913803,148.864487 200.027985,144.204391 197.777008,139.727905 
	C196.087494,136.368011 194.037094,133.169937 191.911346,130.061203 
	C191.288422,129.150238 189.857681,128.791672 188.907257,127.983521 
	C188.907257,127.983521 188.812973,128.184067 188.945663,127.360153 
	C188.811157,123.504524 183.775040,115.616280 180.068008,113.733170 
	C175.037354,106.918922 172.627380,99.448929 173.647644,90.854591 
	C174.115341,86.914856 173.591309,82.867744 173.750290,78.878624 
	C174.006363,72.452316 171.278931,65.142693 180.403351,60.852829 
	C153.167007,60.852829 127.524673,60.852829 101.902138,60.852829 
	C104.097710,63.545406 107.881874,66.041351 107.864037,68.509827 
	C107.741447,85.474258 112.062424,103.361168 99.339394,118.194092 
	C98.927353,118.674446 98.800522,119.399445 98.207695,119.954170 
	C98.207695,119.954170 97.877632,120.025810 97.197807,120.083687 
	C95.848160,121.474098 94.134300,122.658073 93.209663,124.289391 
	C88.261589,133.019150 83.406319,141.805679 78.730377,150.683929 
	C75.936867,155.987991 73.531090,161.496262 70.996414,166.972672 
	C70.996414,166.972672 70.921227,166.972214 70.485069,167.224182 
	C70.369034,167.529022 70.252998,167.833847 70.066528,167.998245 
	C70.066528,167.998245 70.174431,168.112457 69.598145,168.336517 
	C69.402435,168.895844 69.206718,169.455170 68.847481,170.558029 
	C68.536743,171.032715 68.226006,171.507401 67.221779,172.102051 
	C66.844086,173.113739 66.466393,174.125427 66.022697,175.693466 
	C65.952484,176.059616 65.882278,176.425781 65.380203,176.859695 
	C65.380203,176.859695 64.962044,176.988724 64.250214,177.073532 
	C63.440262,178.652695 62.630318,180.231857 61.164677,182.074860 
	C60.821716,183.116211 60.478760,184.157562 59.948429,185.765060 
	C59.703987,186.490250 59.459549,187.215439 58.830448,188.533844 
	C54.188118,196.408386 51.371658,204.632431 53.921814,214.672592 
	C55.916920,223.968475 61.969109,229.541489 70.404488,233.229950 
	C79.981598,237.417648 90.077179,237.974625 100.247719,238.015503 
	C123.566124,238.109238 146.888031,238.262390 170.202713,237.953247 
	C181.478729,237.803711 192.741638,236.666199 204.869934,236.017395 
	C207.350662,236.521896 209.822952,237.373703 212.314468,237.434250 
	C214.857407,237.496033 217.419235,236.780594 219.972794,236.405426 
	C219.927887,235.776382 219.882980,235.147339 219.838074,234.518295 
	C218.506409,234.341003 217.112518,234.338959 215.874008,233.899292 
	C215.386185,233.726120 215.245163,232.576065 215.181900,231.419067 
	C215.430893,231.187836 215.679886,230.956619 216.381866,230.893265 
	C216.381866,230.893265 216.863770,230.923706 217.355026,230.820984 
	C217.582306,230.584122 217.809586,230.347260 218.048203,230.024918 
	C218.048203,230.024918 218.130600,230.050339 218.480957,229.912643 
	C218.706482,229.784897 218.873703,229.603439 219.355576,229.073959 
	C219.355576,229.073959 219.804077,228.917175 220.338455,228.784286 
	C220.540421,228.490921 220.742401,228.197556 220.982285,227.984955 
	C220.982285,227.984955 220.904205,227.941757 221.402161,227.780319 
	C221.587250,227.495148 221.772354,227.209961 221.993057,226.992615 
	C221.993057,226.992615 221.924637,226.958145 222.424728,226.765884 
z"/>
<path fill="#2B414F" opacity="1.000000" stroke="none" 
	d="
M98.540741,120.010406 
	C98.800522,119.399445 98.927353,118.674446 99.339394,118.194092 
	C112.062424,103.361168 107.741447,85.474258 107.864037,68.509827 
	C107.881874,66.041351 104.097710,63.545406 101.902138,60.852829 
	C127.524673,60.852829 153.167007,60.852829 180.403351,60.852829 
	C171.278931,65.142693 174.006363,72.452316 173.750290,78.878624 
	C173.591309,82.867744 174.115341,86.914856 173.647644,90.854591 
	C172.627380,99.448929 175.037354,106.918922 180.399628,114.311989 
	C180.919785,115.580688 181.108337,116.270561 180.929596,117.111221 
	C177.128937,117.117889 173.661469,117.233101 170.267899,116.786568 
	C151.556396,114.324432 132.871536,115.104286 114.221809,117.254959 
	C109.750351,117.770599 105.395500,119.297363 100.574036,120.340050 
	C99.620949,120.217461 99.080849,120.113930 98.540741,120.010406 
M161.001801,65.001625 
	C161.001801,65.001625 161.040344,64.968956 160.569504,64.349068 
	C157.651123,63.317543 154.940933,63.774506 154.395020,67.030762 
	C154.123383,68.650970 155.378311,71.276070 156.767639,72.183418 
	C157.835327,72.880699 160.787903,72.174332 161.843979,71.075264 
	C163.632553,69.213882 164.031494,66.633720 161.001801,65.001625 
M148.058563,102.492661 
	C146.533005,101.367058 145.152405,99.660858 143.451813,99.236282 
	C139.872437,98.342659 136.450516,101.395401 136.369537,105.006073 
	C136.292130,108.457253 139.159500,111.222420 142.715134,111.125473 
	C146.887772,111.011719 148.731018,108.407471 148.058563,102.492661 
z"/>
<path fill="#10AFF5" opacity="1.000000" stroke="none" 
	d="
M204.010483,235.976028 
	C192.741638,236.666199 181.478729,237.803711 170.202713,237.953247 
	C146.888031,238.262390 123.566124,238.109238 100.247719,238.015503 
	C90.077179,237.974625 79.981598,237.417648 70.404488,233.229950 
	C61.969109,229.541489 55.916920,223.968475 53.995354,213.985352 
	C54.114151,212.895538 54.159401,212.492950 54.522804,212.232391 
	C57.609573,213.249573 60.359688,214.801819 63.150143,214.878113 
	C73.142807,215.151260 83.149155,214.924469 93.520721,214.921997 
	C98.005226,214.730362 102.119339,214.503494 106.423737,214.222702 
	C106.614037,214.168777 106.998253,214.068649 107.230835,214.038452 
	C107.463425,214.008240 107.930229,213.962143 108.345642,213.974640 
	C112.475159,214.658081 116.180000,215.840118 119.905052,215.907684 
	C133.007355,216.145279 146.116867,216.041016 159.222916,215.955093 
	C161.153168,215.942429 163.079453,215.328049 165.395416,214.992874 
	C166.851074,214.005966 167.918900,213.018234 169.204773,212.025665 
	C169.422836,212.020798 169.858917,212.009430 170.051437,212.308167 
	C176.392456,216.960373 178.453217,216.863541 184.243805,211.989700 
	C184.693710,212.035339 184.873718,212.053070 185.010773,212.397369 
	C184.312317,217.022263 187.727020,214.100967 189.323242,215.134003 
	C195.932358,215.190063 202.210098,215.084335 208.488251,215.026550 
	C212.940323,214.985596 217.400436,214.868179 221.840164,215.102753 
	C222.962570,215.162079 224.020706,216.437286 225.094147,217.529327 
	C223.570755,220.291550 222.154480,222.744049 220.524185,225.044937 
	C219.119003,227.028107 217.470047,228.838562 215.928894,230.725403 
	C215.679886,230.956619 215.430893,231.187836 214.698090,231.691376 
	C210.813004,233.301132 207.411743,234.638580 204.010483,235.976028 
z"/>
<path fill="#3BE8FD" opacity="1.000000" stroke="none" 
	d="
M98.374222,119.982285 
	C99.080849,120.113930 99.620949,120.217461 100.860916,120.568542 
	C102.701157,121.037407 103.839287,121.271103 104.982239,121.478165 
	C121.694099,124.505775 138.539474,126.536667 155.495056,124.935150 
	C164.672379,124.068321 173.705017,121.669891 183.116669,120.122063 
	C185.224579,122.915863 187.018768,125.549965 188.812973,128.184067 
	C188.812973,128.184067 188.907257,127.983521 188.880951,128.438782 
	C193.855087,137.348862 198.855530,145.803665 203.855972,154.258469 
	C203.855972,154.258469 203.923615,154.646851 204.009445,155.117188 
	C204.111572,155.998413 204.127869,156.409286 203.787430,156.835724 
	C201.572708,155.119354 199.714737,153.387421 198.465729,152.223160 
	C196.280640,153.205414 194.293762,154.858551 192.288467,154.881195 
	C174.328171,155.084030 156.345535,154.482620 138.407516,155.146347 
	C120.687508,155.802017 102.712395,152.049515 85.255676,157.839340 
	C81.977951,154.637711 79.515007,157.622055 76.890228,158.590240 
	C77.998016,156.178162 78.994720,154.094330 80.109695,152.075836 
	C86.015953,141.383438 91.951942,130.707474 97.877625,120.025810 
	C97.877632,120.025810 98.207695,119.954170 98.374222,119.982285 
z"/>
<path fill="#32D4F7" opacity="1.000000" stroke="none" 
	d="
M216.978333,177.033539 
	C217.014267,177.209518 217.050186,177.385513 217.224976,178.001862 
	C217.497879,178.730972 217.724030,178.881485 218.042313,178.893738 
	C218.042313,178.893738 218.001694,178.975220 218.055145,179.282898 
	C218.717117,180.418152 219.325653,181.245712 219.934204,182.073257 
	C219.934204,182.073257 219.999222,182.006241 219.980560,182.379974 
	C220.088760,183.454224 220.215622,184.154755 219.897156,184.895203 
	C215.336853,185.187943 211.213760,185.354477 207.111420,185.741241 
	C205.708527,185.873505 204.357697,186.558060 202.727905,186.886261 
	C201.987320,186.522278 201.501923,186.262329 200.968018,185.642731 
	C199.416916,184.376358 197.914307,183.469666 196.411697,182.562958 
	C196.265182,182.886292 196.118683,183.209641 195.972168,183.532974 
	C196.311859,184.252579 196.651535,184.972168 196.613907,185.734467 
	C191.245621,183.302322 188.748917,186.923004 185.977905,189.670456 
	C185.628448,188.921341 185.314682,188.462189 184.932343,187.637436 
	C181.989914,186.810822 178.746384,185.300247 176.334198,186.149902 
	C173.197952,187.254593 172.226425,186.072632 171.064209,183.557144 
	C171.337067,182.570511 171.548080,182.022079 172.102081,181.550568 
	C180.586075,184.612427 185.023315,181.221786 185.070312,171.928406 
	C185.898239,173.370773 186.517609,175.024216 187.053406,176.454529 
	C189.594421,176.180847 193.641418,174.689499 194.623764,175.832382 
	C197.878098,179.618500 201.107239,177.452652 204.113754,176.682266 
	C207.190247,175.893936 209.782379,172.639908 213.336700,175.424362 
	C213.605484,174.846878 213.874268,174.269394 214.397522,173.888916 
	C215.427429,175.068466 216.202881,176.051010 216.978333,177.033539 
z"/>
<path fill="#26CAF6" opacity="1.000000" stroke="none" 
	d="
M54.204655,212.090363 
	C54.159401,212.492950 54.114151,212.895538 54.022594,213.596115 
	C51.371658,204.632431 54.188118,196.408386 59.251587,188.136047 
	C60.118797,187.508499 60.564869,187.278748 61.055573,187.354584 
	C64.143890,187.727158 67.191727,187.921249 70.229996,187.822144 
	C72.804352,187.738190 75.367661,187.315186 77.946701,187.453339 
	C78.702377,190.881653 74.488876,194.347275 78.864243,197.344009 
	C78.947708,197.851913 78.954590,198.058853 78.932343,198.418701 
	C78.903221,198.571609 78.904579,198.882904 78.696854,198.931122 
	C78.489120,198.979355 78.063248,199.020859 77.670151,199.006958 
	C73.315308,199.015045 69.320816,199.372864 65.398468,198.990555 
	C56.678127,198.140656 56.681271,197.986389 54.295509,206.561707 
	C54.080051,207.336136 54.140598,208.187363 54.056900,209.388672 
	C54.095444,210.546417 54.150051,211.318390 54.204655,212.090363 
z"/>
<path fill="#34DAF8" opacity="1.000000" stroke="none" 
	d="
M65.812073,176.791931 
	C65.882278,176.425781 65.952484,176.059616 66.326706,175.245667 
	C67.058899,173.859268 67.487076,172.920670 67.915260,171.982071 
	C68.226006,171.507401 68.536743,171.032715 69.186768,170.137787 
	C69.742180,169.182526 69.958305,168.647491 70.174423,168.112457 
	C70.174431,168.112457 70.066528,167.998245 70.326797,167.950546 
	C70.698456,167.592636 70.809837,167.282425 70.921227,166.972214 
	C70.921227,166.972214 70.996414,166.972672 71.200294,166.937256 
	C71.404175,166.901855 71.856476,166.876266 71.944458,167.219177 
	C72.314209,167.944901 72.644569,168.686722 72.870377,168.656143 
	C75.800339,168.259567 78.721130,167.785110 81.632759,167.265930 
	C84.736946,166.712418 87.539146,166.657211 89.011360,170.264709 
	C89.311050,170.999084 90.334145,171.438232 91.060715,172.374695 
	C91.073814,174.818741 91.049957,176.901550 90.574005,178.989212 
	C85.596222,178.967224 81.054985,179.160553 76.549797,178.842804 
	C73.046638,178.595734 69.588409,177.711685 66.034904,177.031738 
	C65.959602,176.952759 65.812065,176.791931 65.812073,176.791931 
z"/>
<path fill="#21C5F6" opacity="1.000000" stroke="none" 
	d="
M225.102951,192.949295 
	C225.102951,192.949295 225.488083,192.998856 225.682449,193.347610 
	C225.918991,194.132263 225.961166,194.568176 225.744278,195.228699 
	C225.680832,197.623474 225.876450,199.793625 225.595947,201.976044 
	C218.566162,202.297226 212.011871,202.793915 205.459274,202.772629 
	C203.968842,202.767792 202.484238,200.969604 201.025757,199.671051 
	C201.703873,198.229965 202.353149,197.114670 203.349258,195.936890 
	C204.326279,194.598846 204.956482,193.323334 205.141281,192.949295 
	C212.046616,192.949295 218.574783,192.949295 225.102951,192.949295 
z"/>
<path fill="#2DCCF5" opacity="1.000000" stroke="none" 
	d="
M225.103683,192.625214 
	C218.574783,192.949295 212.046616,192.949295 205.141281,192.949295 
	C204.956482,193.323334 204.326279,194.598846 203.386795,195.568726 
	C203.046036,192.505478 203.014557,189.747894 202.983078,186.990295 
	C204.357697,186.558060 205.708527,185.873505 207.111420,185.741241 
	C211.213760,185.354477 215.336853,185.187943 220.122482,185.008789 
	C221.209732,185.357925 221.626328,185.633362 222.042908,185.908813 
	C222.042908,185.908813 222.011749,185.975082 222.085083,186.234680 
	C222.414810,186.718750 222.671219,186.943207 222.927643,187.167648 
	C222.927643,187.167648 222.977386,187.594803 223.117035,188.079987 
	C223.819229,189.382019 224.381790,190.198868 224.944351,191.015717 
	C224.997711,191.444183 225.051071,191.872650 225.103683,192.625214 
z"/>
<path fill="#D6FCFE" opacity="1.000000" stroke="none" 
	d="
M71.856476,166.876266 
	C71.856476,166.876266 71.404175,166.901855 71.177597,166.907288 
	C73.531090,161.496262 75.936867,155.987991 78.730377,150.683929 
	C83.406319,141.805679 88.261589,133.019150 93.209663,124.289391 
	C94.134300,122.658073 95.848160,121.474098 97.537720,120.054749 
	C91.951942,130.707474 86.015953,141.383438 80.109695,152.075836 
	C78.994720,154.094330 77.998016,156.178162 76.688522,158.705536 
	C76.600845,159.734146 76.771378,160.289062 76.601196,160.906036 
	C75.147964,162.290588 74.035439,163.613052 72.932457,164.959900 
	C72.942001,164.984283 72.940125,164.940323 72.674789,165.093109 
	C72.241714,165.817078 72.073975,166.388245 71.910721,166.928543 
	C71.915215,166.897675 71.856476,166.876266 71.856476,166.876266 
z"/>
<path fill="#46C0E7" opacity="1.000000" stroke="none" 
	d="
M226.072067,201.963776 
	C225.876450,199.793625 225.680832,197.623474 225.970032,195.266296 
	C226.454834,195.079269 226.895111,195.204742 226.895111,195.204742 
	C226.895111,195.204742 226.896545,195.610367 226.964340,196.176178 
	C227.665222,198.839447 228.298309,200.936905 228.931396,203.034363 
	C228.962784,204.097931 228.994186,205.161484 229.019257,207.031555 
	C229.042328,209.233307 229.071732,210.628586 229.101135,212.023849 
	C229.101135,212.023849 228.960602,212.472260 228.735275,212.941299 
	C228.389587,214.265503 228.269226,215.120651 228.148880,215.975815 
	C228.148880,215.975815 227.999939,216.452316 227.806732,216.815094 
	C227.394150,217.406738 227.345154,217.667618 227.466553,217.960495 
	C227.301422,218.394623 227.136276,218.828766 226.681702,219.780289 
	C226.186020,220.828079 225.979736,221.358475 225.773453,221.888855 
	C224.932388,223.035126 224.091324,224.181412 222.854309,225.699081 
	C222.280441,226.366364 222.102539,226.662247 221.924637,226.958145 
	C221.924637,226.958145 221.993057,226.992615 221.728333,227.043365 
	C221.277130,227.376648 221.090668,227.659195 220.904205,227.941757 
	C220.904205,227.941757 220.982285,227.984955 220.709991,228.030151 
	C220.226501,228.355957 220.015289,228.636566 219.804077,228.917175 
	C219.804077,228.917175 219.355576,229.073959 218.966782,229.239044 
	C218.309753,229.536987 218.160629,229.752396 218.130600,230.050339 
	C218.130600,230.050339 218.048203,230.024918 217.790024,230.103577 
	C217.309158,230.429398 217.086456,230.676544 216.863770,230.923706 
	C216.863770,230.923706 216.381866,230.893265 216.155380,230.809326 
	C217.470047,228.838562 219.119003,227.028107 220.524185,225.044937 
	C222.154480,222.744049 223.570755,220.291550 225.408295,217.304932 
	C226.161072,214.133804 226.585495,211.562637 227.018829,208.574448 
	C226.709183,206.092880 226.390625,204.028336 226.072067,201.963776 
z"/>
<path fill="#E0FCFD" opacity="1.000000" stroke="none" 
	d="
M203.906219,153.852081 
	C198.855530,145.803665 193.855087,137.348862 188.825928,128.536987 
	C189.857681,128.791672 191.288422,129.150238 191.911346,130.061203 
	C194.037094,133.169937 196.087494,136.368011 197.777008,139.727905 
	C200.027985,144.204391 201.913803,148.864487 203.906219,153.852081 
z"/>
<path fill="#EFFEFB" opacity="1.000000" stroke="none" 
	d="
M204.440216,235.996704 
	C207.411743,234.638580 210.813004,233.301132 214.580231,231.917267 
	C215.245163,232.576065 215.386185,233.726120 215.874008,233.899292 
	C217.112518,234.338959 218.506409,234.341003 219.838074,234.518295 
	C219.882980,235.147339 219.927887,235.776382 219.972794,236.405426 
	C217.419235,236.780594 214.857407,237.496033 212.314468,237.434250 
	C209.822952,237.373703 207.350662,236.521896 204.440216,235.996704 
z"/>
<path fill="#E0FCFD" opacity="1.000000" stroke="none" 
	d="
M216.995026,176.630905 
	C216.202881,176.051010 215.427429,175.068466 214.346497,173.568970 
	C212.794846,171.322006 211.548660,169.592010 210.277313,167.851379 
	C210.252136,167.840744 210.241226,167.787201 210.270309,167.430435 
	C209.477081,165.095505 208.654770,163.117340 207.912567,161.069885 
	C207.992661,161.000595 208.152466,160.861542 208.152466,160.861542 
	C212.292892,165.299255 215.966156,170.006302 216.995026,176.630905 
z"/>
<path fill="#E0FCFD" opacity="1.000000" stroke="none" 
	d="
M188.879318,127.772110 
	C187.018768,125.549965 185.224579,122.915863 183.150238,119.818893 
	C182.345673,118.557503 181.821289,117.758972 181.296890,116.960434 
	C181.108337,116.270561 180.919785,115.580688 180.637299,114.545074 
	C183.775040,115.616280 188.811157,123.504524 188.879318,127.772110 
z"/>
<path fill="#E0FCFD" opacity="1.000000" stroke="none" 
	d="
M229.228027,202.774643 
	C228.298309,200.936905 227.665222,198.839447 227.040100,196.364319 
	C231.970367,196.608566 229.677078,199.967819 229.228027,202.774643 
z"/>
<path fill="#E0FCFD" opacity="1.000000" stroke="none" 
	d="
M204.144165,156.820160 
	C204.127869,156.409286 204.111572,155.998413 204.121429,155.279404 
	C205.449219,156.692719 206.750854,158.414154 208.102478,160.498566 
	C208.152466,160.861542 207.992661,161.000595 207.648712,160.911240 
	C206.540939,159.881470 205.777084,158.941055 205.007782,157.999374 
	C205.002319,157.998108 205.003403,157.986511 204.949585,157.726044 
	C204.615234,157.279373 204.334702,157.093155 204.088287,156.897308 
	C204.122406,156.887665 204.144165,156.820160 204.144165,156.820160 
z"/>
<path fill="#D6FCFE" opacity="1.000000" stroke="none" 
	d="
M61.820374,181.811020 
	C62.630318,180.231857 63.440262,178.652695 64.581497,177.373779 
	C64.549995,178.753799 64.187218,179.833557 63.612320,181.039902 
	C63.152752,181.407104 63.008900,181.698822 62.752216,182.036163 
	C62.535797,182.030670 62.108150,182.098358 62.035336,182.027405 
	C61.962521,181.956436 61.820374,181.811020 61.820374,181.811020 
z"/>
<path fill="#E0FCFD" opacity="1.000000" stroke="none" 
	d="
M229.423523,211.963165 
	C229.071732,210.628586 229.042328,209.233307 229.084671,207.425568 
	C229.352921,208.642883 229.549423,210.272675 229.423523,211.963165 
z"/>
<path fill="#34DAF8" opacity="1.000000" stroke="none" 
	d="
M61.010933,187.048996 
	C60.564869,187.278748 60.118797,187.508499 59.443920,187.839447 
	C59.459549,187.215439 59.703987,186.490250 60.286850,185.336945 
	C61.043510,184.531204 61.461742,184.153580 61.919395,184.138916 
	C61.642857,185.350922 61.326897,186.199951 61.010933,187.048996 
z"/>
<path fill="#E0FCFD" opacity="1.000000" stroke="none" 
	d="
M225.209610,190.815277 
	C224.381790,190.198868 223.819229,189.382019 223.230988,188.262329 
	C223.961807,188.844604 224.718338,189.729721 225.209610,190.815277 
z"/>
<path fill="#E0FCFD" opacity="1.000000" stroke="none" 
	d="
M222.040466,185.563904 
	C221.626328,185.633362 221.209732,185.357925 220.567825,184.968872 
	C220.215622,184.154755 220.088760,183.454224 219.937561,182.397919 
	C220.621475,183.101105 221.329742,184.160065 222.040466,185.563904 
z"/>
<path fill="#34DAF8" opacity="1.000000" stroke="none" 
	d="
M63.824440,180.913330 
	C64.187218,179.833557 64.549995,178.753799 64.937408,177.331375 
	C64.962044,176.988724 65.380203,176.859695 65.596130,176.825806 
	C65.812065,176.791931 65.959602,176.952759 65.997803,177.403412 
	C65.298820,178.873825 64.561630,179.893585 63.824440,180.913330 
z"/>
<path fill="#D6FCFE" opacity="1.000000" stroke="none" 
	d="
M67.568512,172.042053 
	C67.487076,172.920670 67.058899,173.859268 66.359711,174.967499 
	C66.466393,174.125427 66.844086,173.113739 67.568512,172.042053 
z"/>
<path fill="#E0FCFD" opacity="1.000000" stroke="none" 
	d="
M219.961731,181.718277 
	C219.325653,181.245712 218.717117,180.418152 218.099579,179.273071 
	C218.723480,179.758148 219.356354,180.560715 219.961731,181.718277 
z"/>
<path fill="#D6FCFE" opacity="1.000000" stroke="none" 
	d="
M61.879971,183.775970 
	C61.461742,184.153580 61.043510,184.531204 60.380539,185.053864 
	C60.478760,184.157562 60.821716,183.116211 61.492523,181.942932 
	C61.820374,181.811020 61.962521,181.956436 62.060051,182.242279 
	C62.157578,182.528122 62.274727,182.945282 62.141972,183.136765 
	C62.009216,183.328247 61.879967,183.775955 61.879971,183.775970 
z"/>
<path fill="#E0FCFD" opacity="1.000000" stroke="none" 
	d="
M226.091766,221.898987 
	C225.979736,221.358475 226.186020,220.828079 226.620789,220.123749 
	C226.702881,220.602921 226.556488,221.256027 226.091766,221.898987 
z"/>
<path fill="#E0FCFD" opacity="1.000000" stroke="none" 
	d="
M228.390381,215.752472 
	C228.269226,215.120651 228.389587,214.265503 228.740814,213.176193 
	C228.858429,213.804398 228.745163,214.666763 228.390381,215.752472 
z"/>
<path fill="#E0FCFD" opacity="1.000000" stroke="none" 
	d="
M226.923431,194.872360 
	C226.895111,195.204742 226.454834,195.079269 226.229095,195.041672 
	C225.961166,194.568176 225.918991,194.132263 225.875580,193.367523 
	C226.233475,193.539124 226.592606,194.039551 226.923431,194.872360 
z"/>
<path fill="#D6FCFE" opacity="1.000000" stroke="none" 
	d="
M69.886284,168.224487 
	C69.958305,168.647491 69.742180,169.182526 69.268524,169.866028 
	C69.206718,169.455170 69.402435,168.895844 69.886284,168.224487 
z"/>
<path fill="#E0FCFD" opacity="1.000000" stroke="none" 
	d="
M217.980103,178.713379 
	C217.724030,178.881485 217.497879,178.730972 217.368561,178.229828 
	C217.612747,178.128098 217.794296,178.299957 217.980103,178.713379 
z"/>
<path fill="#E0FCFD" opacity="1.000000" stroke="none" 
	d="
M217.109390,230.872345 
	C217.086456,230.676544 217.309158,230.429398 217.784363,230.146332 
	C217.809586,230.347260 217.582306,230.584122 217.109390,230.872345 
z"/>
<path fill="#E0FCFD" opacity="1.000000" stroke="none" 
	d="
M218.305786,229.981491 
	C218.160629,229.752396 218.309753,229.536987 218.780304,229.386200 
	C218.873703,229.603439 218.706482,229.784897 218.305786,229.981491 
z"/>
<path fill="#E0FCFD" opacity="1.000000" stroke="none" 
	d="
M220.071274,228.850739 
	C220.015289,228.636566 220.226501,228.355957 220.691040,227.989777 
	C220.742401,228.197556 220.540421,228.490921 220.071274,228.850739 
z"/>
<path fill="#E0FCFD" opacity="1.000000" stroke="none" 
	d="
M221.153183,227.861038 
	C221.090668,227.659195 221.277130,227.376648 221.710526,227.009445 
	C221.772354,227.209961 221.587250,227.495148 221.153183,227.861038 
z"/>
<path fill="#E0FCFD" opacity="1.000000" stroke="none" 
	d="
M222.174683,226.862015 
	C222.102539,226.662247 222.280441,226.366364 222.701309,225.965363 
	C222.771088,226.162125 222.597900,226.464005 222.174683,226.862015 
z"/>
<path fill="#E0FCFD" opacity="1.000000" stroke="none" 
	d="
M222.882385,186.912170 
	C222.671219,186.943207 222.414810,186.718750 222.121613,186.236847 
	C222.335602,186.205170 222.586380,186.430939 222.882385,186.912170 
z"/>
<path fill="#E0FCFD" opacity="1.000000" stroke="none" 
	d="
M227.608185,217.825806 
	C227.345154,217.667618 227.394150,217.406738 227.789993,217.064148 
	C227.982239,217.223083 227.910034,217.469971 227.608185,217.825806 
z"/>
<path fill="#D6FCFE" opacity="1.000000" stroke="none" 
	d="
M70.703148,167.098206 
	C70.809837,167.282425 70.698456,167.592636 70.362015,168.020767 
	C70.252998,167.833847 70.369034,167.529022 70.703148,167.098206 
z"/>
<path fill="#2E7C8F" opacity="1.000000" stroke="none" 
	d="
M180.929596,117.111221 
	C181.821289,117.758972 182.345673,118.557503 182.836502,119.659203 
	C173.705017,121.669891 164.672379,124.068321 155.495056,124.935150 
	C138.539474,126.536667 121.694099,124.505775 104.982239,121.478165 
	C103.839287,121.271103 102.701157,121.037407 101.273903,120.587601 
	C105.395500,119.297363 109.750351,117.770599 114.221809,117.254959 
	C132.871536,115.104286 151.556396,114.324432 170.267899,116.786568 
	C173.661469,117.233101 177.128937,117.117889 180.929596,117.111221 
z"/>
<path fill="#39D3EA" opacity="1.000000" stroke="none" 
	d="
M148.194534,102.842178 
	C148.731018,108.407471 146.887772,111.011719 142.715134,111.125473 
	C139.159500,111.222420 136.292130,108.457253 136.369537,105.006073 
	C136.450516,101.395401 139.872437,98.342659 143.451813,99.236282 
	C145.152405,99.660858 146.533005,101.367058 148.194534,102.842178 
z"/>
<path fill="#4ABED2" opacity="1.000000" stroke="none" 
	d="
M161.029175,64.960892 
	C164.031494,66.633720 163.632553,69.213882 161.843979,71.075264 
	C160.787903,72.174332 157.835327,72.880699 156.767639,72.183418 
	C155.378311,71.276070 154.123383,68.650970 154.395020,67.030762 
	C154.940933,63.774506 157.651123,63.317543 160.402802,64.682014 
	C158.834518,66.126259 157.432938,67.237564 156.031357,68.348862 
	C156.850174,69.199203 157.668991,70.049538 158.487823,70.899872 
	C159.338394,69.407883 160.231827,67.937714 161.009567,66.408691 
	C161.205948,66.022652 161.032623,65.448570 161.029175,64.960892 
z"/>
<path fill="#12B8F8" opacity="1.000000" stroke="none" 
	d="
M165.007584,214.992065 
	C163.079453,215.328049 161.153168,215.942429 159.222916,215.955093 
	C146.116867,216.041016 133.007355,216.145279 119.905052,215.907684 
	C116.180000,215.840118 112.475159,214.658081 108.505981,213.642334 
	C108.480255,211.854691 108.709602,210.411865 109.348862,208.977646 
	C112.720612,208.330261 116.237686,206.328186 118.537590,207.276901 
	C124.819519,209.868149 130.909897,207.683212 137.043884,207.979065 
	C145.693909,208.396225 154.350876,208.668945 163.008942,209.367828 
	C163.677856,211.485519 164.342712,213.238800 165.007584,214.992065 
z"/>
<path fill="#26C6F4" opacity="1.000000" stroke="none" 
	d="
M202.727905,186.886261 
	C203.014557,189.747894 203.046036,192.505478 203.039978,195.631226 
	C202.353149,197.114670 201.703873,198.229965 200.777130,199.674698 
	C200.499664,200.004150 200.002274,200.008347 199.649017,200.010803 
	C198.529144,200.671295 197.762527,201.329330 196.607346,201.991516 
	C192.613113,201.469986 189.007446,200.944321 184.891586,200.344269 
	C185.243225,202.878815 185.671066,205.962433 186.078674,209.381836 
	C185.723541,210.502029 185.388626,211.286407 185.053711,212.070786 
	C184.873718,212.053070 184.693710,212.035339 184.284119,211.616730 
	C185.952957,207.178223 184.303436,203.490662 181.177109,201.720963 
	C178.946487,200.458282 174.877975,200.657425 172.480927,201.877228 
	C168.537598,203.883881 168.851349,208.112717 169.858917,212.009430 
	C169.858917,212.009430 169.422836,212.020798 169.053314,211.688263 
	C168.435211,209.916824 168.186661,208.477921 167.964691,206.659119 
	C168.263458,204.733704 168.535645,203.188217 168.671432,202.417191 
	C159.547211,201.587540 150.777267,200.790100 142.089752,199.609161 
	C145.752151,197.486069 150.716339,191.819305 152.286438,187.869904 
	C153.479202,187.273849 154.385620,186.814743 155.234940,186.704895 
	C153.616577,190.040588 152.248764,193.044739 154.734390,196.217575 
	C157.055313,199.180191 159.937180,200.812225 163.753616,199.481247 
	C168.261719,197.909058 169.179077,194.223206 169.311279,190.151550 
	C170.391312,191.438507 171.167999,192.568069 171.173172,192.575577 
	C175.058411,192.099930 177.978012,191.742493 181.571976,191.302505 
	C181.979660,192.362869 182.485565,193.678680 182.593048,194.995667 
	C181.131577,194.997879 180.068527,194.998932 178.661804,194.999649 
	C177.564453,195.125488 176.810776,195.251694 176.057114,195.377899 
	C176.081436,195.589294 176.105759,195.800690 176.130081,196.012085 
	C177.082245,196.012085 178.034409,196.012085 179.040710,196.352707 
	C182.326416,201.234009 184.298080,196.972473 186.982300,195.745621 
	C190.462967,200.008057 194.265930,200.733307 198.558212,197.740494 
	C202.551529,194.956116 201.172958,191.218353 200.091827,187.479996 
	C200.075302,187.369659 200.078934,187.142944 200.281662,186.994400 
	C200.661774,186.564697 200.839142,186.283539 201.016510,186.002380 
	C201.501923,186.262329 201.987320,186.522278 202.727905,186.886261 
z"/>
<path fill="#14B9F9" opacity="1.000000" stroke="none" 
	d="
M54.522804,212.232391 
	C54.150051,211.318390 54.095444,210.546417 54.436775,209.338776 
	C57.414284,208.809021 59.998158,208.756516 62.577003,208.613388 
	C72.071693,208.086365 81.564728,207.529282 91.075722,207.300262 
	C91.079124,208.039597 91.065186,208.462158 91.051727,209.193970 
	C91.354103,210.002487 91.655983,210.501770 92.110893,211.309906 
	C92.559387,212.708084 92.854858,213.797424 93.150322,214.886749 
	C83.149155,214.924469 73.142807,215.151260 63.150143,214.878113 
	C60.359688,214.801819 57.609573,213.249573 54.522804,212.232391 
z"/>
<path fill="#4BCBEA" opacity="1.000000" stroke="none" 
	d="
M108.938950,208.969040 
	C108.709602,210.411865 108.480255,211.854691 108.090569,213.629822 
	C107.930229,213.962143 107.463425,214.008240 107.226959,213.782990 
	C106.988617,213.387909 106.986725,213.218079 106.967239,212.584381 
	C106.954865,210.151077 106.791573,208.163895 106.996811,206.215515 
	C107.620224,200.297333 104.029221,197.399841 98.995926,195.145996 
	C97.750290,194.731247 96.875343,194.368011 96.110306,193.706421 
	C93.395645,185.361023 90.031532,184.906174 78.787659,186.811554 
	C78.787659,190.135483 78.787659,193.589264 78.787659,197.043045 
	C74.488876,194.347275 78.702377,190.881653 78.005264,187.087646 
	C79.132820,185.424438 80.174362,183.846588 81.299820,183.784271 
	C84.395416,183.612839 87.526192,184.076797 91.300194,184.334167 
	C91.200119,182.380981 91.113106,180.682678 91.026093,178.984375 
	C91.049957,176.901550 91.073814,174.818741 91.343063,172.246994 
	C92.361641,171.504089 93.134819,171.250122 93.915962,171.458572 
	C93.822922,178.606033 92.640320,185.692795 100.736420,189.349289 
	C101.643295,188.607025 102.779243,187.677277 103.973518,187.101715 
	C104.714386,187.993256 105.396912,188.530624 105.964645,189.368805 
	C104.997002,190.633453 104.144157,191.597260 103.536545,192.283951 
	C107.618034,200.429779 114.542976,199.360611 121.965706,198.524109 
	C121.965706,194.235565 121.965706,190.169159 121.978195,185.818909 
	C121.995804,185.345734 122.000916,185.156403 122.262619,185.079865 
	C123.008446,185.462906 123.497673,185.733170 123.989197,186.465912 
	C123.978317,190.921478 123.965141,194.914581 123.585297,199.094147 
	C118.219948,199.877060 113.221268,200.473480 108.337929,201.056137 
	C108.540833,203.727493 108.739891,206.348267 108.938950,208.969040 
z"/>
<path fill="#13B7F9" opacity="1.000000" stroke="none" 
	d="
M227.009918,208.991455 
	C226.585495,211.562637 226.161072,214.133804 225.422516,216.929382 
	C224.020706,216.437286 222.962570,215.162079 221.840164,215.102753 
	C217.400436,214.868179 212.940323,214.985596 208.488251,215.026550 
	C202.210098,215.084335 195.932358,215.190063 189.384750,214.780975 
	C189.740707,212.528809 190.366364,210.770981 191.048523,208.686005 
	C194.632172,208.572098 198.169083,209.040009 201.682907,208.905457 
	C203.877960,208.821426 206.063660,207.256821 208.209320,207.352142 
	C214.488068,207.631104 220.744644,208.409042 227.009918,208.991455 
z"/>
<path fill="#E6FAFC" opacity="1.000000" stroke="none" 
	d="
M170.051437,212.308167 
	C168.851349,208.112717 168.537598,203.883881 172.480927,201.877228 
	C174.877975,200.657425 178.946487,200.458282 181.177109,201.720963 
	C184.303436,203.490662 185.952957,207.178223 184.014252,211.588806 
	C178.453217,216.863541 176.392456,216.960373 170.051437,212.308167 
z"/>
<path fill="#50C3E4" opacity="1.000000" stroke="none" 
	d="
M96.000389,194.004776 
	C96.875343,194.368011 97.750290,194.731247 98.860115,195.467514 
	C98.706863,196.370407 98.425285,197.055389 97.914299,197.406403 
	C92.283661,201.274323 93.421341,207.132278 94.705261,212.110168 
	C95.044922,213.427063 101.023361,213.296814 104.415665,213.810989 
	C104.899788,213.884384 105.401161,213.843933 105.979263,213.961304 
	C106.063980,214.066422 106.233444,214.276627 106.233444,214.276627 
	C102.119339,214.503494 98.005226,214.730362 93.520721,214.921997 
	C92.854858,213.797424 92.559387,212.708084 92.110229,211.005493 
	C91.654770,209.889725 91.353012,209.387222 91.051239,208.884735 
	C91.065186,208.462158 91.079124,208.039597 91.119667,206.904190 
	C92.850655,200.270752 92.673378,199.927338 86.520508,200.080811 
	C84.491501,200.131424 82.493401,201.007431 80.451187,201.287430 
	C80.038879,201.343964 79.491272,200.413651 78.990128,199.673553 
	C78.950996,199.233490 78.927788,199.058197 78.904579,198.882904 
	C78.904579,198.882904 78.903221,198.571609 79.312996,198.564484 
	C85.704918,199.028793 92.068626,200.864441 96.000389,194.004776 
z"/>
<path fill="#07BDFD" opacity="1.000000" stroke="none" 
	d="
M167.938095,207.039032 
	C168.186661,208.477921 168.435211,209.916824 168.835236,211.693115 
	C167.918900,213.018234 166.851074,214.005966 165.395416,214.992874 
	C164.342712,213.238800 163.677856,211.485519 163.316055,209.214661 
	C165.058777,208.144394 166.498444,207.591721 167.938095,207.039032 
z"/>
<path fill="#07BDFD" opacity="1.000000" stroke="none" 
	d="
M190.992020,209.013153 
	C190.366364,210.770981 189.740707,212.528809 189.053558,214.639648 
	C187.727020,214.100967 184.312317,217.022263 185.010773,212.397369 
	C185.388626,211.286407 185.723541,210.502029 186.483139,209.366455 
	C188.269226,209.014572 189.630630,209.013855 190.992020,209.013153 
z"/>
<path fill="#50C3E4" opacity="1.000000" stroke="none" 
	d="
M106.984840,213.048248 
	C106.986725,213.218079 106.988617,213.387909 106.994377,213.813187 
	C106.998253,214.068649 106.614037,214.168777 106.423737,214.222702 
	C106.233444,214.276627 106.063980,214.066422 106.144455,213.804977 
	C106.458099,213.347549 106.711403,213.182449 106.984840,213.048248 
z"/>
<path fill="#35E2FC" opacity="1.000000" stroke="none" 
	d="
M93.908005,170.996140 
	C93.134819,171.250122 92.361641,171.504089 91.306107,171.885773 
	C90.334145,171.438232 89.311050,170.999084 89.011360,170.264709 
	C87.539146,166.657211 84.736946,166.712418 81.632759,167.265930 
	C78.721130,167.785110 75.800339,168.259567 72.870377,168.656143 
	C72.644569,168.686722 72.314209,167.944901 71.944458,167.219177 
	C71.856476,166.876266 71.915215,166.897675 72.180893,166.779572 
	C72.611092,166.087738 72.775612,165.514038 72.940125,164.940323 
	C72.940125,164.940323 72.942001,164.984283 73.306015,164.976410 
	C74.760651,163.593689 75.851280,162.218826 76.941910,160.843979 
	C76.771378,160.289062 76.600845,159.734146 76.632019,159.063934 
	C79.515007,157.622055 81.977951,154.637711 85.255676,157.839340 
	C102.712395,152.049515 120.687508,155.802017 138.407516,155.146347 
	C156.345535,154.482620 174.328171,155.084030 192.288467,154.881195 
	C194.293762,154.858551 196.280640,153.205414 198.465729,152.223160 
	C199.714737,153.387421 201.572708,155.119354 203.787430,156.835724 
	C204.144165,156.820160 204.122406,156.887665 204.171051,157.135849 
	C204.480942,157.584854 204.742172,157.785690 205.003403,157.986511 
	C205.003403,157.986511 205.002319,157.998108 204.995789,158.378540 
	C204.822571,161.042435 203.890579,163.687561 204.742233,165.489807 
	C205.372665,166.823898 208.323898,167.061264 210.241226,167.787201 
	C210.241226,167.787201 210.252136,167.840744 210.054672,168.170074 
	C208.736649,170.913223 207.132736,171.419830 204.595459,170.369080 
	C202.666534,169.570282 200.473434,169.355850 198.374313,169.036041 
	C196.056915,168.682938 193.712631,168.506195 191.380066,168.252640 
	C191.365570,168.461960 191.351089,168.671280 191.336594,168.880600 
	C188.508560,168.966614 185.680527,169.052643 182.898392,169.159256 
	C182.944290,169.179855 182.843704,169.182953 182.868546,168.825897 
	C181.870300,164.808121 179.219711,165.534332 176.398560,166.370911 
	C174.843994,167.081924 173.504944,167.561356 171.911438,168.136154 
	C171.455048,168.522766 171.253098,168.814026 171.097107,169.107758 
	C171.143036,169.110260 171.181213,169.193985 170.819809,169.139420 
	C169.971970,169.057327 169.485535,169.029800 168.697784,168.854294 
	C166.324280,168.543854 164.252106,168.381363 162.179916,168.218872 
	C160.578064,168.520325 159.022629,167.120224 157.458008,167.109909 
	C141.080719,167.001892 124.701805,167.101624 108.324257,167.247192 
	C107.869225,167.251236 107.424438,168.407211 106.563019,169.020752 
	C104.774704,169.014069 103.398239,169.012665 101.639816,169.006378 
	C100.494110,169.007172 99.730347,169.012833 98.600784,169.018524 
	C96.825806,169.648438 95.416618,170.278320 94.003250,170.953568 
	C93.999062,170.998932 93.908005,170.996140 93.908005,170.996140 
z"/>
<path fill="#2DD5F9" opacity="1.000000" stroke="none" 
	d="
M168.999115,169.002258 
	C169.485535,169.029800 169.971970,169.057327 170.675049,169.481476 
	C168.459595,173.664230 167.865250,177.382263 171.085052,181.029205 
	C171.055389,181.272797 171.242737,181.438095 171.504807,181.551880 
	C171.579529,181.500366 171.759094,181.473663 171.759094,181.473663 
	C171.548080,182.022079 171.337067,182.570511 170.707642,183.594498 
	C169.136688,184.826996 167.984161,185.583923 166.512009,186.179535 
	C164.158417,185.388168 162.124435,184.758118 159.885132,183.855072 
	C158.810333,184.094193 157.940842,184.606293 157.035858,185.091583 
	C157.000366,185.064774 157.089279,185.067581 156.770111,185.070770 
	C155.995010,185.448654 155.539062,185.823334 155.157516,186.208008 
	C155.231934,186.218018 155.292038,186.355637 155.292038,186.355637 
	C154.385620,186.814743 153.479202,187.273849 152.236511,187.526764 
	C149.379105,182.814774 147.502914,187.768127 145.417603,187.689651 
	C138.263016,187.420395 131.128860,186.608459 123.986908,186.003418 
	C123.497673,185.733170 123.008446,185.462906 121.965439,184.794586 
	C117.123787,184.112305 112.835915,183.828110 108.446968,183.537201 
	C109.092194,180.807663 109.539726,178.914413 109.992401,176.643173 
	C109.998062,175.510193 109.998581,174.755234 110.248734,173.998657 
	C110.498375,173.997040 110.997665,173.994019 111.215942,174.292816 
	C113.641235,175.394379 115.832626,176.836029 118.057953,176.890488 
	C128.240662,177.139633 138.432892,177.007721 148.621674,176.995911 
	C152.205048,176.991760 155.794876,177.058609 159.369125,176.862640 
	C161.349991,176.754028 163.304749,176.169403 165.909943,175.679153 
	C166.686554,174.000580 167.842834,171.501434 168.999115,169.002258 
z"/>
<path fill="#E4FBFD" opacity="1.000000" stroke="none" 
	d="
M171.302063,180.950897 
	C167.865250,177.382263 168.459595,173.664230 171.036453,169.536041 
	C171.181213,169.193985 171.143036,169.110260 171.366394,169.042343 
	C171.781799,168.663223 171.973862,168.352005 172.165909,168.040787 
	C173.504944,167.561356 174.843994,167.081924 176.611084,166.668091 
	C178.973999,167.550110 180.908844,168.366531 182.843704,169.182953 
	C182.843704,169.182953 182.944290,169.179855 182.974030,169.457581 
	C183.623093,170.536697 184.242416,171.338104 184.861755,172.139496 
	C185.023315,181.221786 180.586075,184.612427 172.102081,181.550568 
	C171.759094,181.473663 171.579529,181.500366 171.543457,181.378326 
	C171.507370,181.256302 171.302063,180.950897 171.302063,180.950897 
z"/>
<path fill="#37DCF8" opacity="1.000000" stroke="none" 
	d="
M185.070312,171.928406 
	C184.242416,171.338104 183.623093,170.536697 182.928131,169.436981 
	C185.680527,169.052643 188.508560,168.966614 191.336594,168.880600 
	C191.351089,168.671280 191.365570,168.461960 191.380066,168.252640 
	C193.712631,168.506195 196.056915,168.682938 198.374313,169.036041 
	C200.473434,169.355850 202.666534,169.570282 204.595459,170.369080 
	C207.132736,171.419830 208.736649,170.913223 210.079834,168.180710 
	C211.548660,169.592010 212.794846,171.322006 214.092041,173.371948 
	C213.874268,174.269394 213.605484,174.846878 213.336700,175.424362 
	C209.782379,172.639908 207.190247,175.893936 204.113754,176.682266 
	C201.107239,177.452652 197.878098,179.618500 194.623764,175.832382 
	C193.641418,174.689499 189.594421,176.180847 187.053406,176.454529 
	C186.517609,175.024216 185.898239,173.370773 185.070312,171.928406 
z"/>
<path fill="#F4FCFC" opacity="1.000000" stroke="none" 
	d="
M200.108337,187.590332 
	C201.172958,191.218353 202.551529,194.956116 198.558212,197.740494 
	C194.265930,200.733307 190.462967,200.008057 186.814438,195.381531 
	C186.236893,193.239365 186.125229,191.599884 186.013565,189.960419 
	C188.748917,186.923004 191.245621,183.302322 196.891510,185.891907 
	C198.085083,186.333694 198.623718,186.660767 199.222931,187.209320 
	C199.283524,187.430817 199.660217,187.694565 199.660217,187.694565 
	C199.660217,187.694565 200.108337,187.590332 200.108337,187.590332 
z"/>
<path fill="#24CEF9" opacity="1.000000" stroke="none" 
	d="
M166.831619,186.340851 
	C167.984161,185.583923 169.136688,184.826996 170.645782,184.032715 
	C172.226425,186.072632 173.197952,187.254593 176.334198,186.149902 
	C178.746384,185.300247 181.989914,186.810822 184.931732,188.013504 
	C184.330276,190.834946 183.660858,192.914719 182.991455,194.994492 
	C182.485565,193.678680 181.979660,192.362869 181.571976,191.302505 
	C177.978012,191.742493 175.058411,192.099930 171.173172,192.575577 
	C171.167999,192.568069 170.391312,191.438507 169.215424,190.005585 
	C168.816238,189.702240 168.883865,189.359512 168.897247,188.991226 
	C168.482864,188.110107 168.055069,187.597260 167.440643,187.028107 
	C167.022125,186.822418 166.881332,186.612106 166.831619,186.340851 
z"/>
<path fill="#21C5F6" opacity="1.000000" stroke="none" 
	d="
M182.593018,194.995667 
	C183.660858,192.914719 184.330276,190.834946 185.000290,188.379105 
	C185.314682,188.462189 185.628448,188.921341 185.977905,189.670456 
	C186.125229,191.599884 186.236893,193.239365 186.516418,195.242920 
	C184.298080,196.972473 182.326416,201.234009 179.047211,196.099640 
	C179.001572,195.337296 179.003525,195.168655 179.005493,195.000000 
	C180.068527,194.998932 181.131577,194.997879 182.593018,194.995667 
z"/>
<path fill="#2DCCF5" opacity="1.000000" stroke="none" 
	d="
M199.162354,186.987823 
	C198.623718,186.660767 198.085083,186.333694 197.268829,185.849213 
	C196.651535,184.972168 196.311859,184.252579 195.972168,183.532974 
	C196.118683,183.209641 196.265182,182.886292 196.411697,182.562958 
	C197.914307,183.469666 199.416916,184.376358 200.968033,185.642731 
	C200.839142,186.283539 200.661774,186.564697 200.054535,186.939850 
	C199.624680,187.033859 199.162354,186.987823 199.162354,186.987823 
z"/>
<path fill="#19C2F8" opacity="1.000000" stroke="none" 
	d="
M79.006042,199.938309 
	C79.491272,200.413651 80.038879,201.343964 80.451187,201.287430 
	C82.493401,201.007431 84.491501,200.131424 86.520508,200.080811 
	C92.673378,199.927338 92.850655,200.270752 91.102325,206.587433 
	C81.564728,207.529282 72.071693,208.086365 62.577003,208.613388 
	C59.998158,208.756516 57.414284,208.809021 54.452843,208.953018 
	C54.140598,208.187363 54.080051,207.336136 54.295509,206.561707 
	C56.681271,197.986389 56.678127,198.140656 65.398468,198.990555 
	C69.320816,199.372864 73.315308,199.015045 77.771439,199.210938 
	C78.451637,199.687103 78.698380,199.856934 79.006042,199.938309 
z"/>
<path fill="#29D5FA" opacity="1.000000" stroke="none" 
	d="
M90.574005,178.989212 
	C91.113106,180.682678 91.200119,182.380981 91.300194,184.334167 
	C87.526192,184.076797 84.395416,183.612839 81.299820,183.784271 
	C80.174362,183.846588 79.132820,185.424438 77.994415,186.676514 
	C75.367661,187.315186 72.804352,187.738190 70.229996,187.822144 
	C67.191727,187.921249 64.143890,187.727158 61.055569,187.354584 
	C61.326897,186.199951 61.642857,185.350922 61.919392,184.138916 
	C61.879967,183.775955 62.009216,183.328247 62.306683,183.030472 
	C62.804882,182.544189 62.926380,182.313828 62.968636,182.041641 
	C63.008900,181.698822 63.152752,181.407104 63.612316,181.039902 
	C64.561630,179.893585 65.298820,178.873825 66.073105,177.482407 
	C69.588409,177.711685 73.046638,178.595734 76.549797,178.842804 
	C81.054985,179.160553 85.596222,178.967224 90.574005,178.989212 
z"/>
<path fill="#F1FDFD" opacity="1.000000" stroke="none" 
	d="
M96.110306,193.706421 
	C92.068626,200.864441 85.704918,199.028793 79.342117,198.411591 
	C78.954590,198.058853 78.947708,197.851913 78.864243,197.344009 
	C78.787659,193.589264 78.787659,190.135483 78.787659,186.811554 
	C90.031532,184.906174 93.395645,185.361023 96.110306,193.706421 
z"/>
<path fill="#4BCBEA" opacity="1.000000" stroke="none" 
	d="
M78.990128,199.673553 
	C78.698380,199.856934 78.451637,199.687103 78.164536,199.224838 
	C78.063248,199.020859 78.489120,198.979355 78.696854,198.931122 
	C78.927788,199.058197 78.950996,199.233490 78.990128,199.673553 
z"/>
<path fill="#17C0F8" opacity="1.000000" stroke="none" 
	d="
M191.048523,208.686005 
	C189.630630,209.013855 188.269226,209.014572 186.503357,209.030670 
	C185.671066,205.962433 185.243225,202.878815 184.891586,200.344269 
	C189.007446,200.944321 192.613113,201.469986 196.928665,201.969940 
	C198.426453,201.298950 199.214371,200.653656 200.002274,200.008347 
	C200.002274,200.008347 200.499664,200.004150 200.748306,200.000504 
	C202.484238,200.969604 203.968842,202.767792 205.459274,202.772629 
	C212.011871,202.793915 218.566162,202.297226 225.595947,201.976044 
	C226.390625,204.028336 226.709183,206.092880 227.018829,208.574448 
	C220.744644,208.409042 214.488068,207.631104 208.209320,207.352142 
	C206.063660,207.256821 203.877960,208.821426 201.682907,208.905457 
	C198.169083,209.040009 194.632172,208.572098 191.048523,208.686005 
z"/>
<path fill="#34DAF8" opacity="1.000000" stroke="none" 
	d="
M76.601196,160.906036 
	C75.851280,162.218826 74.760651,163.593689 73.296471,164.952026 
	C74.035439,163.613052 75.147964,162.290588 76.601196,160.906036 
z"/>
<path fill="#34DAF8" opacity="1.000000" stroke="none" 
	d="
M72.674789,165.093109 
	C72.775612,165.514038 72.611092,166.087738 72.176399,166.810425 
	C72.073975,166.388245 72.241714,165.817078 72.674789,165.093109 
z"/>
<path fill="#37DCF8" opacity="1.000000" stroke="none" 
	d="
M210.270309,167.430435 
	C208.323898,167.061264 205.372665,166.823898 204.742233,165.489807 
	C203.890579,163.687561 204.822571,161.042435 205.001251,158.379807 
	C205.777084,158.941055 206.540939,159.881470 207.568634,160.980530 
	C208.654770,163.117340 209.477081,165.095505 210.270309,167.430435 
z"/>
<path fill="#37DCF8" opacity="1.000000" stroke="none" 
	d="
M204.949585,157.726044 
	C204.742172,157.785690 204.480942,157.584854 204.136932,157.145477 
	C204.334702,157.093155 204.615234,157.279373 204.949585,157.726044 
z"/>
<path fill="#34DAF8" opacity="1.000000" stroke="none" 
	d="
M62.752216,182.036163 
	C62.926380,182.313828 62.804882,182.544189 62.439438,182.838989 
	C62.274727,182.945282 62.157578,182.528122 62.132866,182.313232 
	C62.108150,182.098358 62.535797,182.030670 62.752216,182.036163 
z"/>
<path fill="#34DAF8" opacity="1.000000" stroke="none" 
	d="
M161.015488,64.981262 
	C161.032623,65.448570 161.205948,66.022652 161.009567,66.408691 
	C160.231827,67.937714 159.338394,69.407883 158.487823,70.899872 
	C157.668991,70.049538 156.850174,69.199203 156.031357,68.348862 
	C157.432938,67.237564 158.834518,66.126259 160.638214,64.991959 
	C161.040344,64.968956 161.001801,65.001625 161.015488,64.981262 
z"/>
<path fill="#1BC0F8" opacity="1.000000" stroke="none" 
	d="
M167.964691,206.659119 
	C166.498444,207.591721 165.058777,208.144394 163.312012,208.850235 
	C154.350876,208.668945 145.693909,208.396225 137.043884,207.979065 
	C130.909897,207.683212 124.819519,209.868149 118.537590,207.276901 
	C116.237686,206.328186 112.720612,208.330261 109.348862,208.977646 
	C108.739891,206.348267 108.540833,203.727493 108.337929,201.056137 
	C113.221268,200.473480 118.219948,199.877060 123.736473,199.399567 
	C125.502434,199.676956 126.750557,199.835434 128.398254,199.995667 
	C129.862854,199.995850 130.927887,199.994263 132.447556,199.994720 
	C135.937225,199.995422 138.972275,199.994049 142.007309,199.992676 
	C150.777267,200.790100 159.547211,201.587540 168.671432,202.417191 
	C168.535645,203.188217 168.263458,204.733704 167.964691,206.659119 
z"/>
<path fill="#21CCFB" opacity="1.000000" stroke="none" 
	d="
M142.089752,199.609161 
	C138.972275,199.994049 135.937225,199.995422 132.388184,199.649170 
	C130.188919,197.330124 128.839432,197.238220 127.998680,199.993896 
	C126.750557,199.835434 125.502434,199.676956 124.103149,199.213074 
	C123.965141,194.914581 123.978317,190.921478 123.989197,186.465912 
	C131.128860,186.608459 138.263016,187.420395 145.417603,187.689651 
	C147.502914,187.768127 149.379105,182.814774 151.950165,187.663681 
	C150.716339,191.819305 145.752151,197.486069 142.089752,199.609161 
z"/>
<path fill="#E8FCFC" opacity="1.000000" stroke="none" 
	d="
M168.883865,189.359512 
	C168.883865,189.359512 168.816238,189.702240 168.912094,189.848190 
	C169.179077,194.223206 168.261719,197.909058 163.753616,199.481247 
	C159.937180,200.812225 157.055313,199.180191 154.734390,196.217575 
	C152.248764,193.044739 153.616577,190.040588 155.234940,186.704895 
	C155.292038,186.355637 155.231934,186.218018 155.476501,186.244781 
	C156.177155,185.870209 156.633209,185.468903 157.089279,185.067581 
	C157.089279,185.067581 157.000366,185.064774 157.364258,185.085144 
	C158.515594,184.779694 159.303024,184.453873 160.090454,184.128052 
	C162.124435,184.758118 164.158417,185.388168 166.512009,186.179535 
	C166.881332,186.612106 167.022125,186.822418 167.531815,187.346390 
	C168.167709,188.267166 168.525787,188.813339 168.883865,189.359512 
z"/>
<path fill="#21C5F6" opacity="1.000000" stroke="none" 
	d="
M199.649017,200.010803 
	C199.214371,200.653656 198.426453,201.298950 197.317215,201.965820 
	C197.762527,201.329330 198.529144,200.671295 199.649017,200.010803 
z"/>
<path fill="#24CEF9" opacity="1.000000" stroke="none" 
	d="
M178.661804,194.999649 
	C179.003525,195.168655 179.001572,195.337296 178.993088,195.759018 
	C178.034409,196.012085 177.082245,196.012085 176.130081,196.012085 
	C176.105759,195.800690 176.081436,195.589294 176.057114,195.377899 
	C176.810776,195.251694 177.564453,195.125488 178.661804,194.999649 
z"/>
<path fill="#32D4F7" opacity="1.000000" stroke="none" 
	d="
M199.222931,187.209320 
	C199.162354,186.987823 199.624680,187.033859 199.851807,187.088409 
	C200.078934,187.142944 200.075302,187.369659 200.091827,187.479996 
	C200.108337,187.590332 199.660217,187.694565 199.660217,187.694565 
	C199.660217,187.694565 199.283524,187.430817 199.222931,187.209320 
z"/>
<path fill="#10AFF5" opacity="1.000000" stroke="none" 
	d="
M91.051735,209.193970 
	C91.353012,209.387222 91.654770,209.889725 91.957199,210.696625 
	C91.655983,210.501770 91.354103,210.002487 91.051735,209.193970 
z"/>
<path fill="#EFFEFD" opacity="1.000000" stroke="none" 
	d="
M103.915184,186.747528 
	C102.779243,187.677277 101.643295,188.607025 100.736420,189.349289 
	C92.640320,185.692795 93.822922,178.606033 93.915962,171.458572 
	C93.908005,170.996140 93.999062,170.998932 94.423767,170.962708 
	C96.238037,170.788193 97.627602,170.649933 99.379074,170.624268 
	C100.485802,170.657257 101.230629,170.577652 102.373108,170.619629 
	C104.156517,170.842621 105.542267,170.944016 106.949173,171.045609 
	C106.970322,171.045807 106.985893,171.007980 106.994919,171.301071 
	C107.334129,172.003250 107.664307,172.412338 108.187729,172.964294 
	C108.692146,173.292084 108.828979,173.564560 108.568893,174.028900 
	C108.055641,174.372528 107.969925,174.670792 107.902802,175.383850 
	C106.190575,179.319641 108.159653,184.106415 103.915184,186.747528 
z"/>
<path fill="#EFFEFB" opacity="1.000000" stroke="none" 
	d="
M121.965706,186.102753 
	C121.965706,190.169159 121.965706,194.235565 121.965706,198.524109 
	C114.542976,199.360611 107.618034,200.429779 103.536545,192.283951 
	C104.144157,191.597260 104.997002,190.633453 105.945526,189.350327 
	C106.041222,189.031021 106.032990,189.080414 106.234680,188.946594 
	C106.693420,188.599976 106.865295,188.332474 107.301163,187.830460 
	C112.422127,187.134705 117.193916,186.618729 121.965706,186.102753 
z"/>
<path fill="#EEFDFD" opacity="1.000000" stroke="none" 
	d="
M106.967239,212.584381 
	C106.711403,213.182449 106.458099,213.347549 106.059738,213.699860 
	C105.401161,213.843933 104.899788,213.884384 104.415665,213.810989 
	C101.023361,213.296814 95.044922,213.427063 94.705261,212.110168 
	C93.421341,207.132278 92.283661,201.274323 97.914299,197.406403 
	C98.425285,197.055389 98.706863,196.370407 99.230789,195.519012 
	C104.029221,197.399841 107.620224,200.297333 106.996811,206.215515 
	C106.791573,208.163895 106.954865,210.151077 106.967239,212.584381 
z"/>
<path fill="#49D1EF" opacity="1.000000" stroke="none" 
	d="
M121.978195,185.818909 
	C117.193916,186.618729 112.422127,187.134705 107.088921,187.951111 
	C106.266777,188.470596 106.101936,188.746887 106.032990,189.080414 
	C106.032990,189.080414 106.041222,189.031021 106.060333,189.049500 
	C105.396912,188.530624 104.714386,187.993256 103.973518,187.101715 
	C108.159653,184.106415 106.190575,179.319641 108.131409,175.544800 
	C109.026695,175.906982 109.506981,176.464081 109.987259,177.021179 
	C109.539726,178.914413 109.092194,180.807663 108.446968,183.537201 
	C112.835915,183.828110 117.123787,184.112305 121.708847,184.681793 
	C122.000916,185.156403 121.995804,185.345734 121.978195,185.818909 
z"/>
<path fill="#31DDFD" opacity="1.000000" stroke="none" 
	d="
M168.697784,168.854309 
	C167.842834,171.501434 166.686554,174.000580 165.909943,175.679153 
	C163.304749,176.169403 161.349991,176.754028 159.369125,176.862640 
	C155.794876,177.058609 152.205048,176.991760 148.621674,176.995911 
	C138.432892,177.007721 128.240662,177.139633 118.057953,176.890488 
	C115.832626,176.836029 113.641235,175.394379 111.394142,174.031891 
	C113.381622,169.619919 109.040215,170.551270 107.742371,169.006989 
	C107.315849,169.016296 107.145317,169.022995 106.978363,169.022766 
	C106.981934,169.015854 106.974869,169.026031 106.974869,169.026031 
	C107.424438,168.407211 107.869225,167.251236 108.324257,167.247192 
	C124.701805,167.101624 141.080719,167.001892 157.458008,167.109909 
	C159.022629,167.120224 160.578064,168.520325 162.179916,168.218872 
	C164.252106,168.381363 166.324280,168.543854 168.697784,168.854309 
z"/>
<path fill="#37DCF8" opacity="1.000000" stroke="none" 
	d="
M182.868546,168.825912 
	C180.908844,168.366531 178.973999,167.550110 176.826630,166.436493 
	C179.219711,165.534332 181.870300,164.808121 182.868546,168.825912 
z"/>
<path fill="#4BCBEA" opacity="1.000000" stroke="none" 
	d="
M106.928024,171.045410 
	C105.542267,170.944016 104.156517,170.842621 102.373528,170.372772 
	C101.991707,169.673325 102.006866,169.342300 102.021767,169.011261 
	C103.398239,169.012665 104.774704,169.014069 106.563019,169.020752 
	C106.974869,169.026031 106.981934,169.015854 106.982849,169.261078 
	C106.983765,169.506317 107.008133,169.983063 106.994797,170.249161 
	C106.963646,170.691986 106.945839,170.868713 106.928024,171.045410 
z"/>
<path fill="#4BCBEA" opacity="1.000000" stroke="none" 
	d="
M99.017166,170.511673 
	C97.627602,170.649933 96.238037,170.788193 94.427956,170.917328 
	C95.416618,170.278320 96.825806,169.648438 98.615356,169.267548 
	C99.019699,169.847900 99.026848,170.179596 99.017166,170.511673 
z"/>
<path fill="#34DAF8" opacity="1.000000" stroke="none" 
	d="
M99.379074,170.624268 
	C99.026848,170.179596 99.019699,169.847900 98.981148,169.267517 
	C99.730347,169.012833 100.494110,169.007172 101.639816,169.006378 
	C102.006866,169.342300 101.991707,169.673325 101.975876,170.251190 
	C101.230629,170.577652 100.485802,170.657257 99.379074,170.624268 
z"/>
<path fill="#2DD5F9" opacity="1.000000" stroke="none" 
	d="
M171.911438,168.136154 
	C171.973862,168.352005 171.781799,168.663223 171.320450,169.039856 
	C171.253098,168.814026 171.455048,168.522766 171.911438,168.136154 
z"/>
<path fill="#35E2FC" opacity="1.000000" stroke="none" 
	d="
M106.949173,171.045624 
	C106.945839,170.868713 106.963646,170.691986 107.213303,170.147125 
	C107.716156,169.582672 107.900558,169.324463 107.998352,169.004379 
	C109.040215,170.551270 113.381622,169.619919 111.175873,173.733109 
	C110.997665,173.994019 110.498375,173.997040 109.946541,173.984436 
	C109.193626,173.956085 108.992546,173.940338 108.791473,173.924576 
	C108.828979,173.564560 108.692146,173.292084 108.163139,172.687912 
	C107.625496,171.848434 107.305695,171.428207 106.985893,171.007980 
	C106.985893,171.007980 106.970322,171.045807 106.949173,171.045624 
z"/>
<path fill="#26C6F4" opacity="1.000000" stroke="none" 
	d="
M159.885132,183.855072 
	C159.303024,184.453873 158.515594,184.779694 157.399750,185.111969 
	C157.940842,184.606293 158.810333,184.094193 159.885132,183.855072 
z"/>
<path fill="#31DDFD" opacity="1.000000" stroke="none" 
	d="
M108.568893,174.028900 
	C108.992546,173.940338 109.193626,173.956085 109.696899,173.986053 
	C109.998581,174.755234 109.998062,175.510193 109.992401,176.643173 
	C109.506981,176.464081 109.026695,175.906982 108.317795,175.188934 
	C107.969925,174.670792 108.055641,174.372528 108.568893,174.028900 
z"/>
<path fill="#26C6F4" opacity="1.000000" stroke="none" 
	d="
M156.770111,185.070770 
	C156.633209,185.468903 156.177155,185.870209 155.402100,186.234772 
	C155.539062,185.823334 155.995010,185.448654 156.770111,185.070770 
z"/>
<path fill="#32D4F7" opacity="1.000000" stroke="none" 
	d="
M171.085052,181.029205 
	C171.302063,180.950897 171.507370,181.256302 171.468719,181.429855 
	C171.242737,181.438095 171.055389,181.272797 171.085052,181.029205 
z"/>
<path fill="#26C6F4" opacity="1.000000" stroke="none" 
	d="
M168.897247,188.991226 
	C168.525787,188.813339 168.167709,188.267166 167.718445,187.402710 
	C168.055069,187.597260 168.482864,188.110107 168.897247,188.991226 
z"/>
<path fill="#26C6F4" opacity="1.000000" stroke="none" 
	d="
M128.398254,199.995667 
	C128.839432,197.238220 130.188919,197.330124 131.933533,199.647095 
	C130.927887,199.994263 129.862854,199.995850 128.398254,199.995667 
z"/>
<path fill="#34DAF8" opacity="1.000000" stroke="none" 
	d="
M106.994919,171.301071 
	C107.305695,171.428207 107.625496,171.848434 107.969894,172.545044 
	C107.664307,172.412338 107.334129,172.003250 106.994919,171.301071 
z"/>
<path fill="#4BCBEA" opacity="1.000000" stroke="none" 
	d="
M106.234680,188.946594 
	C106.101936,188.746887 106.266777,188.470596 106.739746,188.130890 
	C106.865295,188.332474 106.693420,188.599976 106.234680,188.946594 
z"/>
<path fill="#34DAF8" opacity="1.000000" stroke="none" 
	d="
M107.742371,169.006989 
	C107.900558,169.324463 107.716156,169.582672 107.226639,169.881027 
	C107.008133,169.983063 106.983765,169.506317 106.979279,169.268005 
	C107.145317,169.022995 107.315849,169.016296 107.742371,169.006989 
z"/>
</svg>